<svg width="200" height="47" viewBox="0 0 200 47" fill="none" xmlns="http://www.w3.org/2000/svg">
<path d="M75.5436 32.8792H70.1089L70.1177 30.5085C69.4323 32.089 68.2538 32.8792 66.5822 32.8792H60.9287C58.9095 32.8792 57.4789 32.6888 56.6367 32.3078C55.6996 31.8976 55.1072 31.1073 54.8594 29.9371C54.7152 29.1408 54.6605 28.3309 54.6964 27.5224L54.6582 13.9121H60.043L60.0224 25.6804C60.0206 26.1509 60.0584 26.6206 60.1355 27.0847C60.2608 27.6722 60.6329 28.0521 61.2518 28.2245C61.526 28.2832 62.0861 28.3126 62.9322 28.3126H67.2153C68.4393 28.3126 69.2012 28.1951 69.5008 27.9601C69.8984 27.6369 70.1001 26.8731 70.106 25.6687L70.128 13.918H75.5128L75.5436 32.8792Z" fill="#34424F"/>
<path d="M99.4655 27.4861C99.445 29.7285 99.0239 31.1895 98.2023 31.8691C97.3807 32.5487 95.7112 32.888 93.1936 32.887H88.3963L88.3861 28.3204H91.1034C92.3558 28.3204 93.1319 28.2029 93.4315 27.9679C93.8281 27.6447 94.0151 26.8809 93.9926 25.6765L94.0631 21.0746C94.0653 20.6121 94.0279 20.1501 93.9515 19.6939C93.8301 19.1181 93.4428 18.7441 92.7896 18.5717C92.5429 18.5149 91.9945 18.486 91.1446 18.4851H84.6817L84.689 42.292H79.2896V13.9199H93.2068C95.2269 13.9199 96.6752 14.1241 97.5516 14.5324C98.428 14.9408 98.9906 15.7285 99.2393 16.8958C99.3862 17.6891 99.4546 18.495 99.4435 19.3017L99.4655 27.4861Z" fill="#34424F"/>
<path d="M119.581 32.8792H109.487C107.439 32.8792 106.008 32.6888 105.195 32.3079C104.26 31.8976 103.665 31.0926 103.409 29.8931C103.263 29.1116 103.197 28.3172 103.212 27.5224V19.2675C103.212 17.0731 103.63 15.6316 104.467 14.9432C105.303 14.2548 106.979 13.9121 109.495 13.9151H119.588V18.4802H111.51C110.279 18.4802 109.513 18.5972 109.212 18.8313C108.804 19.125 108.599 19.8854 108.599 21.1124V25.6775C108.586 26.1635 108.621 26.6495 108.703 27.1287C108.826 27.7163 109.212 28.0825 109.859 28.2274C110.403 28.3035 110.952 28.3329 111.501 28.3156H119.58L119.581 32.8792Z" fill="#34424F"/>
<path d="M144.194 27.5229C144.194 29.7193 143.784 31.1607 142.963 31.8471C142.143 32.5336 140.46 32.8763 137.914 32.8753H129.571C127.552 32.8753 126.106 32.6795 125.23 32.2878C124.355 31.8961 123.79 31.0985 123.537 29.895C123.391 29.1135 123.325 28.3192 123.34 27.5243V19.2695C123.34 17.075 123.751 15.6336 124.572 14.9452C125.394 14.2568 127.062 13.9141 129.578 13.917H137.919C139.968 13.917 141.399 14.107 142.213 14.4869C143.148 14.8962 143.743 15.7012 143.999 16.9017C144.144 17.6833 144.21 18.4776 144.196 19.2724L144.194 27.5229ZM138.808 25.6721V21.107C138.844 20.6239 138.823 20.1384 138.746 19.6602C138.623 19.0726 138.238 18.7079 137.59 18.5659C137.344 18.5071 136.795 18.4778 135.945 18.4778H131.639C130.408 18.4778 129.616 18.6095 129.262 18.8729C128.909 19.1363 128.73 19.882 128.726 21.1099V25.6751C128.715 26.1611 128.75 26.647 128.832 27.1263C128.957 27.7138 129.341 28.08 129.985 28.225C130.23 28.2837 130.775 28.3131 131.622 28.3131H135.912C137.137 28.3131 137.9 28.1956 138.201 27.9606C138.606 27.6668 138.808 26.904 138.808 25.6721Z" fill="#34424F"/>
<path d="M168.016 32.8764H154.143C152.094 32.8764 150.632 32.6805 149.757 32.2888C148.882 31.8971 148.317 31.0996 148.063 29.8961C147.918 29.1146 147.852 28.3203 147.867 27.5254V19.2705C147.867 17.0761 148.277 15.6347 149.099 14.9463C149.92 14.2579 151.589 13.9151 154.105 13.9181H158.959V18.4832H156.168C154.938 18.4832 154.145 18.6149 153.792 18.8783C153.438 19.1418 153.26 19.8874 153.256 21.1154V25.6805C153.244 26.1665 153.279 26.6525 153.36 27.1317C153.484 27.7193 153.87 28.0855 154.517 28.2304C154.764 28.2892 155.314 28.3186 156.166 28.3186H162.68L162.655 7.59473H168.043L168.016 32.8764Z" fill="#34424F"/>
<path d="M192.03 25.6775H180.933V21.1124H186.808C186.808 20.2766 186.798 19.8315 186.786 19.7743C186.603 18.9106 185.811 18.4782 184.411 18.4773H180.123C178.957 18.4773 178.188 18.629 177.814 18.9326C177.441 19.2362 177.246 19.9652 177.227 21.1197L177.201 25.6731C177.2 26.1441 177.239 26.6143 177.317 27.0788C177.442 27.6663 177.815 28.0463 178.437 28.2186C178.713 28.2774 179.275 28.3067 180.125 28.3067H192.036V32.8734H178.061C176.042 32.8734 174.611 32.6824 173.768 32.3005C172.832 31.8892 172.239 31.0961 171.989 29.921C171.845 29.1222 171.79 28.3098 171.826 27.4989L171.788 19.2616C171.788 17.3463 172.277 15.9753 173.257 15.1489C174.236 14.3224 175.838 13.9092 178.064 13.9092H185.792C187.812 13.9092 189.261 14.1133 190.138 14.5217C191.015 14.93 191.578 15.7173 191.824 16.8836C191.971 17.6769 192.04 18.4828 192.028 19.2895L192.03 25.6775Z" fill="#34424F"/>
<path d="M5.55221 19.749H1.69504C0.758896 19.749 0 20.5079 0 21.4441V25.3012C0 26.2374 0.758896 26.9963 1.69504 26.9963H5.55221C6.48835 26.9963 7.24725 26.2374 7.24725 25.3012V21.4441C7.24725 20.5079 6.48835 19.749 5.55221 19.749Z" fill="#33C348"/>
<path d="M15.896 29.0957H12.0388C11.1026 29.0957 10.3438 29.8546 10.3438 30.7907V34.6479C10.3438 35.5841 11.1026 36.343 12.0388 36.343H15.896C16.8321 36.343 17.591 35.5841 17.591 34.6479V30.7907C17.591 29.8546 16.8321 29.0957 15.896 29.0957Z" fill="#33C348"/>
<path d="M15.896 10.4023H12.0388C11.1026 10.4023 10.3438 11.1612 10.3438 12.0974V15.9546C10.3438 16.8907 11.1026 17.6496 12.0388 17.6496H15.896C16.8321 17.6496 17.591 16.8907 17.591 15.9546V12.0974C17.591 11.1612 16.8321 10.4023 15.896 10.4023Z" fill="#33C348"/>
<path d="M47.1528 18.6968H41.6785C41.0725 18.6948 40.4918 18.4536 40.0627 18.0256C39.6342 17.5969 39.3929 17.016 39.3915 16.4099V10.9282C39.3915 10.7207 39.3506 10.5152 39.2711 10.3236C39.1917 10.1319 39.0752 9.95776 38.9285 9.81112C38.7817 9.66447 38.6075 9.5482 38.4157 9.46893C38.224 9.38967 38.0185 9.34897 37.811 9.34916H32.3308C31.7245 9.34722 31.1436 9.10535 30.715 8.67643C30.2861 8.2479 30.0443 7.66702 30.0423 7.06071V1.58047C30.0425 1.37299 30.0018 1.16751 29.9225 0.975765C29.8433 0.784022 29.727 0.609783 29.5804 0.463003C29.4337 0.316224 29.2596 0.199784 29.0679 0.12034C28.8762 0.0408958 28.6708 6.05381e-06 28.4633 6.14358e-06H22.2678C22.0598 -0.000573563 21.8538 0.039878 21.6616 0.119044C21.4693 0.198211 21.2946 0.314536 21.1473 0.461354C21.0001 0.608171 20.8833 0.782596 20.8036 0.974636C20.7239 1.16667 20.6829 1.37255 20.6829 1.58047V7.76869C20.6829 8.1876 20.8492 8.58938 21.1453 8.88573C21.4413 9.18209 21.843 9.34877 22.2619 9.34916H27.7377C28.3438 9.35056 28.9247 9.5919 29.3534 10.0204C29.7819 10.4491 30.0233 11.03 30.0247 11.6361V16.3966C30.0249 17.0053 29.7835 17.5891 29.3534 18.0197C28.9244 18.4477 28.3437 18.6889 27.7377 18.691H22.2678C22.0594 18.6902 21.853 18.7307 21.6603 18.81C21.4677 18.8894 21.2927 19.0061 21.1453 19.1534C20.998 19.3008 20.8813 19.4758 20.8019 19.6684C20.7226 19.8611 20.6821 20.0675 20.6829 20.2758V26.4655C20.6829 26.8843 20.8492 27.2859 21.1453 27.5821C21.4415 27.8782 21.8431 28.0445 22.2619 28.0445H27.7377C28.3437 28.0466 28.9244 28.2878 29.3534 28.7158C29.5665 28.9289 29.7354 29.182 29.8506 29.4605C29.9658 29.739 30.025 30.0375 30.0247 30.3389V35.0994C30.0233 35.7055 29.7819 36.2864 29.3534 36.7151C28.9249 37.144 28.344 37.3859 27.7377 37.3878H22.2678C22.0594 37.387 21.853 37.4275 21.6603 37.5069C21.4677 37.5862 21.2927 37.703 21.1453 37.8503C20.998 37.9976 20.8813 38.1726 20.8019 38.3653C20.7226 38.5579 20.6821 38.7643 20.6829 38.9727V45.1609C20.6829 45.5798 20.8492 45.9816 21.1453 46.278C21.4413 46.5743 21.843 46.741 22.2619 46.7414H28.4516C28.659 46.7414 28.8645 46.7005 29.0562 46.621C29.2478 46.5416 29.422 46.4252 29.5686 46.2784C29.7152 46.1316 29.8315 45.9574 29.9108 45.7656C29.9901 45.5739 30.0308 45.3684 30.0306 45.1609V39.6865C30.0325 39.0802 30.2744 38.4994 30.7033 38.0708C31.132 37.6423 31.7129 37.401 32.319 37.3996H37.7934C38.2125 37.3996 38.6145 37.2331 38.9109 36.9367C39.2073 36.6403 39.3738 36.2383 39.3738 35.8191V30.3389C39.3752 29.7327 39.6166 29.1518 40.0451 28.7231C40.4738 28.2946 41.0547 28.0533 41.6608 28.0519H47.1352C47.3451 28.055 47.5536 28.0162 47.7484 27.9378C47.9432 27.8594 48.1203 27.7429 48.2696 27.5952C48.4188 27.4475 48.537 27.2715 48.6174 27.0775C48.6978 26.8836 48.7387 26.6755 48.7377 26.4655V20.2758C48.7377 20.068 48.6967 19.8622 48.6169 19.6702C48.5372 19.4783 48.4204 19.3039 48.2731 19.1572C48.1259 19.0105 47.9511 18.8944 47.7589 18.8154C47.5666 18.7363 47.3607 18.6961 47.1528 18.6968ZM39.3856 25.7473C39.3852 26.3555 39.1433 26.9387 38.7131 27.3687C38.2829 27.7986 37.6995 28.0401 37.0913 28.0401H32.3308C31.7246 28.0387 31.1437 27.7974 30.715 27.3689C30.2856 26.9407 30.0436 26.3596 30.0423 25.7531V20.9897C30.0435 20.3817 30.2856 19.799 30.7157 19.3692C31.1457 18.9394 31.7286 18.6976 32.3366 18.6968H37.0971C37.7033 18.6982 38.2842 18.9396 38.7129 19.3681C39.1418 19.7966 39.3837 20.3775 39.3856 20.9838V25.7473Z" fill="url(#paint0_linear_3573_2128)"/>
<path d="M198.865 28.3105H196.569C195.942 28.3105 195.433 28.8189 195.433 29.446V31.7418C195.433 32.3688 195.942 32.8772 196.569 32.8772H198.865C199.492 32.8772 200 32.3688 200 31.7418V29.446C200 28.8189 199.492 28.3105 198.865 28.3105Z" fill="#08BF38"/>
<defs>
<linearGradient id="paint0_linear_3573_2128" x1="20.6887" y1="23.3707" x2="48.7333" y2="23.3707" gradientUnits="userSpaceOnUse">
<stop stop-color="#13BC3E"/>
<stop offset="1" stop-color="#019931"/>
</linearGradient>
</defs>
</svg>
